<svg width="171" height="29" viewBox="0 0 171 29" fill="none" xmlns="http://www.w3.org/2000/svg">
<mask id="mask0_26_269" style="mask-type:luminance" maskUnits="userSpaceOnUse" x="0" y="0" width="171" height="29">
<path d="M170.516 0.0571289H0.0595703V28.6571H170.516V0.0571289Z" fill="white"/>
</mask>
<g mask="url(#mask0_26_269)">
<path d="M67.0049 2.96854C67.0049 2.29192 67.2766 1.64303 67.7602 1.16459C68.2438 0.686144 68.8998 0.417358 69.5837 0.417358C70.2676 0.417358 70.9236 0.686144 71.4072 1.16459C71.8908 1.64303 72.1625 2.29192 72.1625 2.96854C72.1375 3.62867 71.8549 4.25357 71.3741 4.71188C70.8932 5.1702 70.2515 5.42626 69.5837 5.42626C68.916 5.42626 68.2742 5.1702 67.7933 4.71188C67.3125 4.25357 67.0298 3.62867 67.0049 2.96854Z" fill="#273B7D"/>
<path d="M107.69 19.9829C107.69 18.567 108.843 17.4229 110.264 17.4229C110.95 17.4229 111.607 17.6925 112.092 18.1722C112.577 18.652 112.85 19.3027 112.85 19.9811C112.85 20.6597 112.577 21.3104 112.092 21.7902C111.607 22.2699 110.95 22.5395 110.264 22.5395C108.845 22.5395 107.69 21.3936 107.69 19.9811" fill="#499FDD"/>
<path d="M24.6817 18.8764C22.4621 18.8764 20.9177 17.1318 20.9177 14.6375C20.9177 12.1449 22.4621 10.402 24.6835 10.402C26.9156 10.402 28.4763 12.1449 28.4763 14.6375C28.4763 17.1708 26.9498 18.8764 24.6817 18.8764ZM24.6817 6.67653C19.9839 6.67653 16.5737 10.0254 16.5737 14.6375C16.5737 19.2512 19.9857 22.5983 24.6817 22.5983C29.3993 22.5983 32.822 19.2512 32.822 14.6391C32.822 10.0254 29.3993 6.67653 24.6835 6.67653H24.6817ZM62.0093 15.0372C61.8457 14.7243 61.639 14.4356 61.3951 14.1791L61.2514 14.0317L61.4023 13.8894C61.6178 13.6639 61.8386 13.3974 62.0505 13.0882L66.1988 6.99098H61.1635L58.0476 11.7611C57.8717 12.0169 57.5162 12.1449 56.9828 12.1449H56.2735V3.1269C56.2735 1.32367 55.1368 1.07849 53.9102 1.07849H51.8091L51.8144 22.3637H56.2752V15.9788H56.6937C57.2018 15.9788 57.5466 16.0373 57.7065 16.3109L60.1668 20.9051C60.8545 22.1524 61.5386 22.3637 62.8281 22.3637H66.2456L63.6991 18.1995L62.0111 15.0372H62.0093ZM83.6631 6.641C81.3932 6.641 79.9457 7.63944 79.134 8.4833L78.8647 8.75335L78.7677 8.3856C78.5307 7.48132 77.7261 6.98565 76.5175 6.98565H74.5188L74.5314 22.3584H78.9615V15.2734C78.9615 14.5805 79.0513 13.98 79.2381 13.4311C79.7302 11.77 81.1057 10.7378 82.8243 10.7378C84.2071 10.7378 84.7477 11.4609 84.7477 13.3263V20.0222C84.7477 21.614 85.4928 22.3584 87.1037 22.3584H89.212L89.2049 12.5801C89.2049 8.6965 87.2888 6.64276 83.6631 6.64276V6.641ZM69.636 6.99098H67.5367L67.551 18.8782V22.3637H69.7904L69.8694 22.3674L70.9146 22.3637H71.9527V22.3584H71.9597L71.9688 9.32719C71.9688 7.75491 71.2092 6.99275 69.6379 6.99275L69.636 6.99098ZM42.0812 18.8764C39.8615 18.8764 38.3154 17.1318 38.3154 14.6375C38.3154 12.1449 39.8617 10.402 42.0831 10.402C44.3099 10.402 45.8759 12.1449 45.8759 14.6375C45.8759 17.1708 44.3494 18.8764 42.0831 18.8764H42.0812ZM42.0812 6.67653C37.3798 6.67653 33.9677 10.0254 33.9677 14.6375C33.9677 19.2512 37.3798 22.5983 42.0831 22.5983C46.7934 22.5983 50.2233 19.2512 50.2233 14.6391C50.2233 10.0254 46.7934 6.67653 42.0831 6.67653" fill="#273B7D"/>
<path d="M137.036 18.8765C134.816 18.8765 133.269 17.1319 133.269 14.6376C133.269 12.1451 134.816 10.4023 137.036 10.4023C139.266 10.4023 140.831 12.1451 140.831 14.6376C140.831 17.1711 139.305 18.8765 137.036 18.8765ZM137.036 6.67676C132.334 6.67676 128.924 10.0256 128.924 14.6376C128.924 19.2515 132.334 22.5986 137.036 22.5986C141.749 22.5986 145.177 19.2515 145.177 14.6395C145.177 10.0256 141.746 6.67676 137.036 6.67676Z" fill="#499FDD"/>
<path d="M98.5455 18.1997C96.123 18.1997 95.2611 16.1104 95.2611 14.1508C95.2611 13.2874 95.4818 10.4751 98.3139 10.4751C99.72 10.4751 101.593 10.873 101.593 14.2947C101.593 17.5228 99.9355 18.1997 98.5455 18.1997ZM103.893 6.95031C103.053 6.95031 102.407 7.28253 102.082 7.88835L101.959 8.12286L101.755 7.9452C101.04 7.33404 99.7578 6.60742 97.6764 6.60742C93.5335 6.60742 90.7446 9.68625 90.7446 14.2646C90.7446 18.841 93.6305 22.0388 97.759 22.0388C99.1688 22.0388 100.284 21.712 101.167 21.0511L101.509 20.7971V21.2233C101.509 23.2771 100.167 24.4106 97.7338 24.4106C96.5504 24.4106 95.4748 24.1264 94.7528 23.8669C93.8155 23.5862 93.2623 23.8191 92.8834 24.7517L92.5315 25.6116L92.034 26.8694L92.341 27.0311C93.8999 27.8483 95.9273 28.3368 97.759 28.3368C101.53 28.3368 105.937 26.427 105.937 21.0511L105.953 6.95031H103.893Z" fill="#273B7D"/>
<path d="M8.18648 18.7006L4.58052 18.6971V14.4332C4.58052 13.5201 4.93789 13.0476 5.72625 12.9375H8.18648C9.94098 12.9375 11.0759 14.0318 11.0777 15.8031C11.0759 17.6223 9.96972 18.6989 8.18648 18.6989V18.7006ZM4.58052 7.19549V6.07269C4.58052 5.09023 5.00076 4.623 5.922 4.56259H7.76812C9.35022 4.56259 10.2984 5.49885 10.2984 7.06758C10.2984 8.26144 9.64828 9.65607 7.82555 9.65607H4.58052V7.19549ZM12.7909 11.4522L12.139 11.0898L12.7084 10.6083C13.371 10.0451 14.479 8.77844 14.479 6.59323C14.479 3.24614 11.8571 1.08582 7.79683 1.08582H2.63565C2.05492 1.10676 1.50461 1.34795 1.09874 1.7594C0.692868 2.17085 0.46256 2.72102 0.455566 3.29588V22.2876H7.88836C12.4012 22.2876 15.314 19.8572 15.314 16.0927C15.314 14.0656 14.373 12.3334 12.7909 11.4522Z" fill="#273B7D"/>
<path d="M164.963 6.69263C164.049 6.69595 163.147 6.90251 162.324 7.29704C161.501 7.69156 160.778 8.26398 160.209 8.97198L159.889 9.3735L159.637 8.92401C158.815 7.44412 157.404 6.69263 155.441 6.69263C153.381 6.69263 152 7.82965 151.359 8.50475L150.939 8.95422L150.776 8.36262C150.544 7.50986 149.777 7.04261 148.617 7.04261H146.754L146.736 22.3567H150.966V15.5969C150.966 15.0035 151.041 14.4191 151.19 13.8061C151.594 12.1716 152.704 10.4146 154.57 10.5905C155.719 10.7006 156.283 11.58 156.283 13.2784V22.3567H160.542V15.5969C160.542 14.856 160.612 14.3018 160.781 13.7475C161.123 12.1876 162.283 10.5887 164.082 10.5887C165.386 10.5887 165.867 11.3171 165.867 13.2784V20.1183C165.867 21.664 166.563 22.3567 168.127 22.3567H170.118L170.122 12.5802C170.122 8.67351 168.383 6.69263 164.963 6.69263ZM126.472 17.0395C126.46 17.0555 124.641 18.9528 122.243 18.9528C120.06 18.9528 117.855 17.6275 117.855 14.6694C117.855 12.1148 119.564 10.3293 122.013 10.3293C122.807 10.3293 123.712 10.61 123.854 11.0844L123.874 11.1643C123.965 11.4909 124.161 11.7788 124.434 11.9834C124.707 12.188 125.04 12.2979 125.382 12.296L127.699 12.2995V10.2955C127.699 7.65198 124.3 6.69263 122.013 6.69263C117.122 6.69263 113.573 10.061 113.573 14.7014C113.573 19.3384 117.082 22.7032 121.924 22.7032C126.122 22.7032 128.407 19.9727 128.428 19.946L128.55 19.7968L126.715 16.7854L126.472 17.0395Z" fill="#499FDD"/>
</g>
</svg>
